<svg xmlns="http://www.w3.org/2000/svg" xmlns:xlink="http://www.w3.org/1999/xlink" xmlns:sketch="http://www.bohemiancoding.com/sketch/ns" viewBox="0 0 100 125" version="1.1" x="0px" y="0px"><title>Untitled 2</title><description>Created with Sketch (http://www.bohemiancoding.com/sketch)</description><g stroke="none" stroke-width="1" fill="#ffffff" fill-rule="evenodd" sketch:type="MSPage"><g sketch:type="MSLayerGroup" transform="translate(2.000000, 2.000000)" fill="#ffffff"><path d="M36,26 L36,68 L71,47 L36,26 Z" sketch:type="MSShapeGroup"/><path d="M96,48 C96,21.4903307 74.5096693,0 48,0 C21.4903307,0 0,21.4903307 0,48 C0,74.5096693 21.4903307,96 48,96 C74.5096693,96 96,74.5096693 96,48 Z M1,48 C1,22.0426154 22.0426154,1 48,1 C73.9573846,1 95,22.0426154 95,48 C95,73.9573846 73.9573846,95 48,95 C22.0426154,95 1,73.9573846 1,48 Z" sketch:type="MSShapeGroup"/></g></g></svg>